<?xml version="1.0" encoding="utf-8"?>
<!-- Generator: Adobe Illustrator 23.0.6, SVG Export Plug-In . SVG Version: 6.00 Build 0)  -->
<svg version="1.1" id="Layer_1" xmlns="http://www.w3.org/2000/svg" xmlns:xlink="http://www.w3.org/1999/xlink" x="0px" y="0px"
	 viewBox="0 0 1920 1080" style="enable-background:new 0 0 1920 1080;" xml:space="preserve">
<style type="text/css">
	.st0{fill:#E0234E;}
	.st1{fill-rule:evenodd;clip-rule:evenodd;fill:#4D4D4D;}
</style>
<path class="st0" d="M1561.96,394.7c-6-24.76-14.54-49.3-25.82-73.28c-96.35-204.75-345.9-284.5-544.01-173.4
	c-35.11,19.69-67.44,43.43-93.22,75.58c46.3,75.78,91.56,149.87,139.2,227.85c4.75-11.74,7.16-18.17,9.91-24.45
	c33.31-75.96,124.55-111.02,197.36-75.88c78.16,37.73,108.7,130.42,67.7,205.49c-55.06,100.82-193.79,102.9-257.49,2.75
	c-91.7-144.18-182-289.26-272.91-433.95c-9.23-14.69-18.5-29.34-29.86-47.36C581.95,340.19,413.94,597.94,244.75,857.49
	c241.29,0,721.63,0.78,721.25,0.51c-5.74-3.98-17.6-11.86-23.37-15.8c-56.84-38.7-103.96-87.01-135.04-148.34
	C795.06,669.12,791,663,772,663c-25.55,0-69.22,0.26-99.83,0.26c28.74-44,53.65-82.12,80.36-123.02
	c7.2,10.11,12.67,17.4,17.73,24.97c30.65,45.84,60.85,91.99,91.87,137.58c54.5,80.1,134.44,134.54,222.6,157.99
	c-19.46,26.02-44.48,49.12-74.16,68.11c-2.56,1.36-5.12,3-7.67,4.64c-0.64,0.55-1.6,0.82-2.24,1.36c-2.24,1.36-4.48,2.73-7.03,4.09
	l0.96,1.64h0.32c4.48-0.55,8.95-1.09,13.43-1.64h0.32c8.31-1.09,16.63-2.46,24.94-3.82c2.24-0.27,4.8-0.82,7.03-1.36
	c1.6-0.27,2.88-0.55,4.48-0.82c2.24-0.27,4.48-0.82,6.71-1.09c1.92-0.55,3.84-0.82,5.76-1.36c31.98-6.55,62.99-15.55,92.73-26.19
	c-50.84,59.2-118.95,106.95-198.57,138.33c36.77-2.18,73.11-9.38,109.04-16.1C1203,1000,1359.6,828.23,1362,827
	c-14.07,59.28-43.94,119.49-85.06,169.02c31.02-17.46,57.18-40.54,85.38-60.57C1446,876,1497.19,714.23,1498.85,711.92
	c9.24,40.48,11.84,82.04,7.36,123.14C1606.58,660.52,1600.74,508.14,1561.96,394.7z"/>
<polygon class="st1" points="1300.1,456.18 1214.22,456.18 1214.22,370.31 1159.87,370.31 1159.87,456.18 1073.99,456.18 
	1073.99,510.54 1159.87,510.54 1159.87,596.41 1214.22,596.41 1214.22,510.54 1300.1,510.54 "/>
</svg>
